<svg xmlns="http://www.w3.org/2000/svg" width="40" height="40" viewBox="0 0 40 40">
  <g id="Group_14911" data-name="Group 14911" transform="translate(-238 -488)">
    <rect id="Rectangle_2373" data-name="Rectangle 2373" width="40" height="40" transform="translate(238 488)" fill="none"/>
    <g id="Group_14907" data-name="Group 14907" transform="translate(1995.001 18148.334)">
      <path id="path62" d="M342.135-379.732l2.577,5.651,5.906.527a.457.457,0,0,1,.282.78l-4.339,4.3,1.087,5.608a.458.458,0,0,1-.654.5l-5.274-2.649-5.275,2.629a.458.458,0,0,1-.653-.5l1.086-5.582-4.339-4.307a.457.457,0,0,1,.282-.78l5.907-.527,2.576-5.651A.458.458,0,0,1,342.135-379.732Z" transform="translate(-2079.066 -17273.334)" fill="none" stroke="#fff" stroke-linejoin="round" stroke-width="1.2"/>
      <path id="path64" d="M336.4-349.819l-1.979,1.963,1,5.184a.423.423,0,0,1-.6.458l-4.875-2.449-4.875,2.429a.423.423,0,0,1-.6-.459l1-5.16-4.011-3.981a.423.423,0,0,1,.26-.721l5.46-.487,1.184-2.6" transform="translate(-2073.333 -17285.951)" fill="none" stroke="#fff" stroke-linejoin="round" stroke-width="1.2"/>
      <path id="path66" d="M363.825-357.532l1.894,4.154,4.342.388a.336.336,0,0,1,.206.573l-3.189,3.162.8,4.123a.336.336,0,0,1-.481.365l-3.877-1.947-3.878,1.932a.337.337,0,0,1-.48-.365l.716-3.678" transform="translate(-2092.919 -17284.969)" fill="none" stroke="#fff" stroke-linejoin="round" stroke-width="1.2"/>
    </g>
  </g>
</svg>
