<svg xmlns="http://www.w3.org/2000/svg" xmlns:xlink="http://www.w3.org/1999/xlink" width="30" height="30" viewBox="0 0 30 30"><defs><style>.a,.b,.d{fill:none;}.b,.c,.d{stroke:#363636;stroke-linejoin:round;stroke-width:1.2px;}.b,.c{stroke-linecap:round;}.b,.d{stroke-miterlimit:10;}.c{stroke-miterlimit:22.926;fill:url(#a);}</style><linearGradient id="a" x1="0.5" x2="0.5" y2="1" gradientUnits="objectBoundingBox"><stop offset="0" stop-color="#442c7f"/><stop offset="1" stop-color="#684ea9"/></linearGradient></defs><rect class="a" width="30" height="30"/><g transform="translate(2050.995 -5040.878)"><path class="b" d="M1752.25-284.735a3.677,3.677,0,0,1-2.361-1.158" transform="translate(-3778.005 5352.64)"/><path class="b" d="M1666.273-382.666v1.191c0,2.644-.939,4.819-3.651,5.274" transform="translate(-3695.612 5444.009)"/><path class="b" d="M1720.689-467.982c.134-.011.27-.017.408-.017a4.723,4.723,0,0,1,4.765,4.68v1.872" transform="translate(-3750.436 5524.577)"/><path class="b" d="M1642.663-450.86v-1.872a4.665,4.665,0,0,1,2.382-4.054" transform="translate(-3676.766 5513.99)"/><path class="b" d="M1700.476-424.444a2.388,2.388,0,0,1,1.537-.555,2.369,2.369,0,0,1,2.382,2.355v1.883a2.238,2.238,0,0,0,2.383,2.355" transform="translate(-3731.351 5483.979)"/><path class="b" d="M1642.663-378.647a2.148,2.148,0,0,0,2.383-2.383v-1.8" transform="translate(-3676.766 5444.16)"/><path class="b" d="M1600-497.021V-500h2.383" transform="translate(-3636.482 5554.79)"/><path class="b" d="M1815.712-497.021V-500h-2.383" transform="translate(-3837.902 5554.79)"/><path class="b" d="M1600-286.666v2.978h2.383" transform="translate(-3636.482 5353.37)"/><path class="b" d="M1815.712-286.666v2.978h-2.383" transform="translate(-3837.902 5353.37)"/><path class="b" d="M1417.527-565.135H1408v-9.53" transform="translate(-3455.204 5625.287)"/><path class="b" d="M1674.662-585.332v2.382" transform="translate(-3706.979 5635.358)"/><path class="c" d="M1376-703.8l9.53-9.53,9.5,9.53Z" transform="translate(-3424.991 5756.21)"/><path class="b" d="M1433.565-701.463v-3.628h-2.3v5.93" transform="translate(-3477.171 5748.43)"/><path class="d" d="M1472-504.709v-5.956h3.574v5.956" transform="translate(-3515.63 5564.861)"/></g></svg>