<svg xmlns="http://www.w3.org/2000/svg" width="40" height="40" viewBox="0 0 40 40">
  <g id="Group_14905" data-name="Group 14905" transform="translate(-238 -488)">
    <rect id="Rectangle_2373" data-name="Rectangle 2373" width="40" height="40" transform="translate(238 488)" fill="none"/>
    <g id="Group_14904" data-name="Group 14904" transform="translate(2193.667 18231.668)">
      <path id="path86" d="M246.086-234.682v-9.112c0-2.46-5.032-4.205-7.71-4.205s-7.71,1.745-7.71,4.205v9.112" transform="translate(-2173.922 -17477.154)" fill="none" stroke="#fff" stroke-linejoin="round" stroke-width="1.2"/>
      <path id="path88" d="M242.171-259.589a3.406,3.406,0,0,0,3.5-3.5v-1.4a3.406,3.406,0,0,0-3.5-3.5,3.406,3.406,0,0,0-3.5,3.5v1.4A3.406,3.406,0,0,0,242.171-259.589Z" transform="translate(-2177.717 -17467.668)" fill="none" stroke="#fff" stroke-linejoin="round" stroke-width="1.2"/>
      <path id="path90" d="M261.333-245.333h.7c2.435,0,7.009,1.89,7.009,4.205v7.009" transform="translate(-2188.469 -17478.42)" fill="none" stroke="#fff" stroke-linejoin="round" stroke-width="1.2"/>
      <path id="path92" d="M260.837-256.922a3.406,3.406,0,0,0,3.5-3.5v-1.4a3.406,3.406,0,0,0-3.5-3.5,3.406,3.406,0,0,0-3.5,3.5v1.4A3.406,3.406,0,0,0,260.837-256.922Z" transform="translate(-2186.571 -17468.934)" fill="none" stroke="#fff" stroke-linejoin="round" stroke-width="1.2"/>
      <path id="path94" d="M214.666-234.118v-7.009c0-2.315,4.574-4.205,7.009-4.205h.7" transform="translate(-2166.333 -17478.42)" fill="none" stroke="#fff" stroke-linejoin="round" stroke-width="1.2"/>
      <path id="path96" d="M223.5-256.922a3.406,3.406,0,0,1-3.5-3.5v-1.4a3.406,3.406,0,0,1,3.5-3.5,3.406,3.406,0,0,1,3.5,3.5v1.4A3.406,3.406,0,0,1,223.5-256.922Z" transform="translate(-2168.863 -17468.934)" fill="none" stroke="#fff" stroke-linejoin="round" stroke-width="1.2"/>
    </g>
  </g>
</svg>
