<svg xmlns="http://www.w3.org/2000/svg" xmlns:xlink="http://www.w3.org/1999/xlink" width="30" height="30" viewBox="0 0 30 30"><defs><style>.a,.c,.d{fill:none;}.b,.c,.d{stroke:#363636;stroke-linejoin:round;stroke-width:1.2px;}.b,.c{stroke-linecap:round;}.b{stroke-miterlimit:22.926;fill:url(#a);}.c,.d{stroke-miterlimit:10;}</style><linearGradient id="a" x1="0.5" x2="0.5" y2="1" gradientUnits="objectBoundingBox"><stop offset="0" stop-color="#442c7f"/><stop offset="1" stop-color="#684ea9"/></linearGradient></defs><rect class="a" width="30" height="30"/><g transform="translate(6.308 -32.533)"><path class="b" d="M4133.074-3236.68c.982,3.405-2.511,6.057-6.241,6.054h-1.188v-2.972l-8.321,5.943,8.321,6.539v-2.972h1.188c4.155,0,7.129-3.648,7.132-8.321s-2.972-8.916-7.727-8.916" transform="translate(-4112.31 3277.046)"/><path class="c" d="M4159.99-2894.643v-5.349" transform="translate(-4152.599 2954.734)"/><path class="c" d="M4106.657-2942.659v7.727" transform="translate(-4102.237 2995.024)"/><path class="d" d="M4066.368-3256.715a2.279,2.279,0,0,0,2.377-2.378v-1.188a2.279,2.279,0,0,0-2.377-2.378,2.279,2.279,0,0,0-2.378,2.378v1.188A2.279,2.279,0,0,0,4066.368-3256.715Z" transform="translate(-4061.948 3297.191)"/><path class="c" d="M4020.575-3122.541a7.71,7.71,0,0,0-4.569-1.451c-2.065,0-5.349,1.008-5.349,2.972v6.538" transform="translate(-4011.587 3166.252)"/><path class="c" d="M4053.323-3059.992v5.944" transform="translate(-4051.876 3105.818)"/><path class="c" d="M4053.323-2867.993v3.566" transform="translate(-4051.876 2924.518)"/><path class="d" d="M3973.34-2948.571h-5.349v-4.755h5.349Z" transform="translate(-3971.298 3005.095)"/></g></svg>