<svg xmlns="http://www.w3.org/2000/svg" xmlns:xlink="http://www.w3.org/1999/xlink" width="30.849" height="30" viewBox="0 0 30.849 30"><defs><style>.a,.b,.c,.g{fill:none;}.b,.c,.d,.f,.g{stroke:#363636;stroke-width:1.2px;}.b,.d,.g{stroke-miterlimit:10;}.c,.f,.g{stroke-linecap:round;}.c,.f{stroke-linejoin:round;stroke-miterlimit:22.926;}.d{fill:#fff;}.e{fill:#aed7f3;}.f{fill:url(#a);}</style><linearGradient id="a" x1="0.5" x2="0.5" y2="1" gradientUnits="objectBoundingBox"><stop offset="0" stop-color="#442c7f"/><stop offset="1" stop-color="#684ea9"/></linearGradient></defs><g transform="translate(0.849)"><rect class="a" width="30" height="30"/><g transform="translate(1804.131 -5118.495)"><path class="a" d="M361.83-240.113h-2.551v3.4h5.34c0-1.942-1.249-3.4-2.789-3.4" transform="translate(-2139.594 5362.607)"/><path class="b" d="M357.344-236.715h3.884c0-1.942-1.249-3.4-2.789-3.4h-4.492" transform="translate(-2136.203 5362.607)"/><path class="b" d="M336.581-240.113a2.793,2.793,0,0,0-2.737,2.851v16.514a3.112,3.112,0,0,1-2.987,2.966H319.279v-19.541a2.893,2.893,0,0,1,2.913-2.79h14.388Z" transform="translate(-2114.159 5362.607)"/><path class="c" d="M321.984-186.78H309.647c.427,1.456,1.852,2.913,3.144,2.913h11.886c-1.292,0-2.375-1.456-2.692-2.913" transform="translate(-2108.034 5328.692)"/><path class="d" d="M321.984-186.78H309.647c.427,1.456,1.852,2.913,3.144,2.913h11.886C323.385-183.867,322.3-185.323,321.984-186.78Z" transform="translate(-2108.034 5328.692)"/><path class="b" d="M327.279-226.779h8.738" transform="translate(-2119.246 5354.129)"/><path class="b" d="M327.279-221.446h8.738" transform="translate(-2119.246 5350.737)"/><path class="b" d="M327.279-216.113h8.738" transform="translate(-2119.246 5347.346)"/><path class="b" d="M343.279-194.78h2.913" transform="translate(-2129.42 5333.78)"/><path class="e" d="M309.436-220a7.022,7.022,0,0,0-1.458-3.518l-9.377-9.377a1.462,1.462,0,0,0-2.09-.031,1.462,1.462,0,0,0,.031,2.09l9.377,9.377A7.022,7.022,0,0,0,309.436-220" transform="translate(-2099.41 5358.307)"/><path class="f" d="M309.436-220a7.022,7.022,0,0,0-1.458-3.518l-9.377-9.377a1.462,1.462,0,0,0-2.09-.031,1.462,1.462,0,0,0,.031,2.09l9.377,9.377A7.022,7.022,0,0,0,309.436-220Z" transform="translate(-2099.41 5358.307)"/><path class="g" d="M298.331-217.906l-4.463-4.463" transform="translate(-2098 5351.324)"/><path class="g" d="M297.641-220.4l1.03-1.03" transform="translate(-2100.398 5350.724)"/><path class="g" d="M332.525-196.913l.686.686" transform="translate(-2122.582 5335.136)"/><path class="g" d="M323.1-204.281l2.059-2.06" transform="translate(-2116.586 5341.131)"/><path class="g" d="M301.411-225.965l2.06-2.059" transform="translate(-2102.797 5354.92)"/><path class="b" d="M337.946-194.78h.971" transform="translate(-2126.029 5333.78)"/></g></g></svg>