<svg xmlns="http://www.w3.org/2000/svg" width="164.141" height="104.498" viewBox="0 0 164.141 104.498"><defs><style>.a,.f{fill:#d0d0d0;}.a{opacity:0.349;}.b{fill:#128579;}.c{fill:#3f3d56;}.d{fill:#159587;}.e,.h,.j{opacity:0.1;}.g{fill:#fff;}.h{fill:#444053;}.i{fill:#ececed;}.j{fill:#c6c6c6;}.k{fill:#707070;opacity:0.331;}.l{fill:#2f2e41;}</style></defs><g transform="translate(354.714 -23.89)"><g transform="translate(27.286 129.89)"><path class="a" d="M123.018,73.12c-9.583-.333-18.709-3.427-27.425-6.812s-17.348-7.135-26.7-8.928c-6.015-1.154-12.9-1.317-17.743,1.908-4.665,3.1-6.172,8.461-6.983,13.434-.61,3.741-.967,7.677.7,11.18,1.16,2.43,3.219,4.474,4.638,6.8,4.955,8.1,1.458,18.094-3.917,26.007-2.518,3.711-5.441,7.252-7.384,11.2s-2.839,8.477-1.13,12.514c1.686,3.994,5.7,6.994,10.054,9.106,8.831,4.279,19.246,5.506,29.4,6.2,22.481,1.537,45.082.872,67.623.205,8.341-.248,16.72-.5,24.926-1.788,4.557-.716,9.262-1.855,12.571-4.6a10.528,10.528,0,0,0,2.426-13.753c-4.72-7.328-17.772-9.144-21.071-17.013-1.817-4.328.049-9.151,2.689-13.165,5.661-8.614,15.151-16.168,15.651-26.013.345-6.759-4.218-13.533-11.272-16.732-7.395-3.353-17.647-2.931-23.1,2.62C141.351,71.215,131.48,73.413,123.018,73.12Z" transform="translate(-418.124 -162.625)"/><ellipse class="b" cx="8.819" cy="1.696" rx="8.819" ry="1.696" transform="translate(-368.107 -10.199)"/><ellipse class="c" cx="1.027" cy="1.344" rx="1.027" ry="1.344" transform="translate(-360.464 -10.568)"/><ellipse class="c" cx="1.027" cy="1.344" rx="1.027" ry="1.344" transform="translate(-360.464 -15.211)"/><ellipse class="c" cx="1.027" cy="1.344" rx="1.027" ry="1.344" transform="translate(-360.464 -12.853)"/><ellipse class="c" cx="1.027" cy="1.344" rx="1.027" ry="1.344" transform="translate(-357.464 -20.496)"/><ellipse class="c" cx="1.027" cy="1.344" rx="1.027" ry="1.344" transform="translate(-360.464 -17.14)"/><ellipse class="c" cx="1.027" cy="1.344" rx="1.027" ry="1.344" transform="translate(-357.464 -23.781)"/><ellipse class="c" cx="1.027" cy="1.344" rx="1.027" ry="1.344" transform="translate(-357.464 -25.425)"/><path class="d" d="M200.188,537.8a4.841,4.841,0,0,0,.383-.563l-2.7-.443,2.915.021a4.922,4.922,0,0,0,.094-3.9l-3.915,2.03,3.61-2.65a4.919,4.919,0,1,0-8.124,5.5,4.969,4.969,0,0,0-.561.9l3.5,1.82-3.732-1.254a4.92,4.92,0,0,0,.8,4.618,4.919,4.919,0,1,0,7.731,0,4.915,4.915,0,0,0,0-6.081Z" transform="translate(-555.781 -568.129)"/><path class="e" d="M191.451,612.415a19.538,19.538,0,0,1,1.58,9.7,4.919,4.919,0,0,0,7.2-6.655C200.894,614.619,191.451,611.862,191.451,612.415Z" transform="translate(-555.828 -639.697)"/><g transform="translate(152.243 192.589)"><path class="f" d="M883.238,228.963c0,19.281-11.463,26.014-25.6,26.014s-25.6-6.732-25.6-26.014,25.6-43.811,25.6-43.811S883.238,209.681,883.238,228.963Z" transform="translate(-1259.817 -471.605)"/><path class="c" d="M894.8,190.985l.262-16.137,10.912-19.964-10.871,17.432.118-7.256,7.521-14.444-7.49,12.523h0l.212-13.05,8.053-11.5-8.02,9.447.133-23.929-.832,31.677.068-1.307-8.188-12.533,8.057,15.042-.763,14.574-.023-.387-9.439-13.189,9.411,14.556-.1,1.823-.017.027.008.15-1.936,36.977h2.586l.31-19.1,9.388-14.52Z" transform="translate(-1297.919 -410.563)"/></g><path class="g" d="M267.81,317.87v58.536a2.043,2.043,0,0,0,2.043,2.043h84a2.043,2.043,0,0,0,2.044-2.043V317.87Z" transform="translate(-619.069 -389.249)"/><rect class="e" width="21.058" height="12.36" rx="6.18" transform="translate(-344.288 -66.139)"/><rect class="e" width="21.058" height="12.36" rx="6.18" transform="translate(-317.743 -66.139)"/><rect class="d" width="20.465" height="12.012" rx="6.006" transform="translate(-343.993 -65.966)"/><rect class="h" width="20.465" height="12.012" rx="6.006" transform="translate(-270.437 -53.954) rotate(180)"/><rect class="i" width="20.465" height="12.012" rx="6.006" transform="translate(-296.982 -53.954) rotate(180)"/><rect class="h" width="20.465" height="12.012" rx="6.006" transform="translate(-343.993 -48.615)"/><rect class="h" width="20.465" height="12.012" rx="6.006" transform="translate(-270.437 -36.603) rotate(180)"/><rect class="h" width="20.465" height="12.012" rx="6.006" transform="translate(-296.982 -36.603) rotate(180)"/><rect class="h" width="20.465" height="12.012" rx="6.006" transform="translate(-343.993 -31.264)"/><rect class="h" width="20.465" height="12.012" rx="6.006" transform="translate(-270.437 -19.251) rotate(180)"/><rect class="h" width="20.465" height="12.012" rx="6.006" transform="translate(-296.982 -19.251) rotate(180)"/><path class="d" d="M267.81,226.475V237.11H355.9V226.475a2.043,2.043,0,0,0-2.043-2.045h-84A2.043,2.043,0,0,0,267.81,226.475Zm21.8,5.146a1.631,1.631,0,1,1,1.631-1.631,1.631,1.631,0,0,1-1.631,1.631Zm44.489,0a1.631,1.631,0,1,1,1.153-.477,1.631,1.631,0,0,1-1.153.477Z" transform="translate(-619.069 -308.192)"/><path class="e" d="M419.68,236.74a1.928,1.928,0,1,0,1.927,1.928A1.928,1.928,0,0,0,419.68,236.74Zm0,3.56a1.631,1.631,0,1,1,1.631-1.631A1.631,1.631,0,0,1,419.68,240.3Z" transform="translate(-749.139 -316.871)"/><circle class="j" cx="4.804" cy="4.804" r="4.804" transform="translate(-382 -65.009)"/></g><ellipse class="k" cx="76.214" cy="3.762" rx="76.214" ry="3.762" transform="translate(-343 120.863)"/><circle class="l" cx="13.42" cy="13.42" r="13.42" transform="translate(-272.384 91.658)"/><rect class="l" width="4.077" height="7.305" transform="matrix(0.956, -0.294, 0.294, 0.956, -261.715, 116.944)"/><rect class="l" width="4.077" height="7.305" transform="matrix(0.956, -0.294, 0.294, 0.956, -253.921, 114.548)"/><ellipse class="l" cx="3.398" cy="1.274" rx="3.398" ry="1.274" transform="matrix(0.956, -0.294, 0.294, 0.956, -259.919, 122.79)"/><ellipse class="l" cx="3.398" cy="1.274" rx="3.398" ry="1.274" transform="matrix(0.956, -0.294, 0.294, 0.956, -252.174, 120.232)"/><circle class="g" cx="4.587" cy="4.587" r="4.587" transform="translate(-264.223 97.144)"/><circle class="c" cx="1.529" cy="1.529" r="1.529" transform="translate(-261.166 100.202)"/><path class="d" d="M652.056,509.54c-2.461-4.32-.591-10.026,4.178-12.742s10.63-1.417,13.092,2.9-.406,7.074-5.175,9.791S654.518,513.861,652.056,509.54Z" transform="translate(-927.13 -412.567)"/><path class="d" d="M753.883,578.5c0,9.356-5.562,12.623-12.423,12.623q-.239,0-.476-.005c-.318-.007-.633-.022-.944-.043-6.192-.438-11-3.873-11-12.575,0-9.005,11.507-20.368,12.372-21.209l0,0,.05-.048S753.883,569.146,753.883,578.5Z" transform="translate(-991.933 -463.923)"/><path class="c" d="M775.1,589.694l4.544-6.349-4.555,7.046-.012.729c-.318-.007-.633-.022-.944-.043l.49-9.361,0-.073.008-.013.046-.884-4.566-7.064,4.581,6.4.01.188.37-7.073-3.91-7.3,3.957,6.058.385-14.663,0-.05v.048l-.064,11.563,3.892-4.584-3.908,5.58-.1,6.332,3.634-6.077-3.649,7.009-.058,3.52,5.276-8.458-5.3,9.687Z" transform="translate(-1026.027 -463.923)"/><ellipse class="l" cx="2.107" cy="6.71" rx="2.107" ry="6.71" transform="translate(-271.139 109.265) rotate(-64.626)"/></g></svg>